<svg xmlns="http://www.w3.org/2000/svg" xmlns:xlink="http://www.w3.org/1999/xlink" width="111.192" height="88" viewBox="0 0 111.192 88">
  <defs>
    <clipPath id="clip-path">
      <rect id="Rectangle_2566" data-name="Rectangle 2566" width="111.192" height="88" fill="none"/>
    </clipPath>
  </defs>
  <g id="Groupe_17672" data-name="Groupe 17672" transform="translate(-131.904 -364)">
    <g id="Groupe_17669" data-name="Groupe 17669" transform="translate(131.904 364)">
      <g id="Groupe_17668" data-name="Groupe 17668" clip-path="url(#clip-path)">
        <path id="Tracé_11109" data-name="Tracé 11109" d="M25.328,105.562a3.927,3.927,0,0,1-3.926,3.926H4.306A4.306,4.306,0,0,1,0,105.182V70.989a4.306,4.306,0,0,1,8.612,0v30.648H21.4a3.926,3.926,0,0,1,3.926,3.926" transform="translate(0 -25.73)" fill="#439c35"/>
        <path id="Tracé_11110" data-name="Tracé 11110" d="M50.827,113.027V90.865a4.179,4.179,0,0,1,8.358,0v22.163a4.179,4.179,0,0,1-8.358,0" transform="translate(-19.612 -33.448)" fill="#439c35"/>
        <path id="Tracé_11111" data-name="Tracé 11111" d="M105.944,98.4v14.454a4.116,4.116,0,1,1-8.231,0V99.808A5.888,5.888,0,0,0,91.7,93.666a6.169,6.169,0,0,0-6.142,6.4v12.79a4.116,4.116,0,1,1-8.231,0V90.563a4.116,4.116,0,0,1,8.188-.6,11.342,11.342,0,0,1,9.035-3.9c6.9,0,11.4,4.5,11.4,12.331" transform="translate(-29.836 -33.21)" fill="#439c35"/>
        <path id="Tracé_11112" data-name="Tracé 11112" d="M134.441,101.935c0-9.262,6.406-15.868,14.31-15.868,8.483,0,14.316,7,14.316,15.7a3.483,3.483,0,0,1-3.482,3.482H143.1c.862,2.751,2.959,4.386,6.392,4.386a16.682,16.682,0,0,0,6.172-1.2,3.812,3.812,0,1,1,2.675,7.139,27.225,27.225,0,0,1-8.846,1.626c-8.971.141-15.051-6.117-15.051-15.273m19.772-3.646a5.8,5.8,0,0,0-5.462-4.559,5.949,5.949,0,0,0-5.63,4.559Z" transform="translate(-51.875 -33.21)" fill="#439c35"/>
        <path id="Tracé_11114" data-name="Tracé 11114" d="M20.483,4.687a2.1,2.1,0,0,1-2.1,2.1H4.819V18.746H16.266a2.1,2.1,0,0,1,0,4.192H4.819V36.174a2.281,2.281,0,0,1-4.562,0V4.873A2.281,2.281,0,0,1,2.539,2.592H18.388a2.1,2.1,0,0,1,2.1,2.1" transform="translate(-0.099 -1)" fill="#fff"/>
        <path id="Tracé_11115" data-name="Tracé 11115" d="M88.322,31.562a12.955,12.955,0,1,1,25.9,0,12.955,12.955,0,1,1-25.9,0m21.38,0c0-5.386-3.774-9.225-8.428-9.225s-8.429,3.839-8.429,9.225,3.774,9.224,8.429,9.224,8.428-3.839,8.428-9.224" transform="translate(-34.08 -7.058)" fill="#fff"/>
        <path id="Tracé_11116" data-name="Tracé 11116" d="M164.936,2.208V35.246a2.208,2.208,0,0,1-4.416,0V33.388a11.639,11.639,0,0,1-9.132,4.384c-6.684,0-12.1-5.518-12.1-13.269s5.418-13.27,12.1-13.27a11.635,11.635,0,0,1,9.132,4.389V2.208a2.208,2.208,0,1,1,4.416,0m-4.271,22.3c0-5.386-3.774-9.225-8.428-9.225s-8.429,3.839-8.429,9.225,3.774,9.224,8.429,9.224,8.428-3.839,8.428-9.224" transform="translate(-53.744 0)" fill="#fff"/>
      </g>
    </g>
    <path id="Tracé_11117" data-name="Tracé 11117" d="M63.128,29.541a.492.492,0,0,1-.014-.1c-.07-.454-.154-.9-.259-1.329,0-.014-.007-.021-.007-.028-.049-.2-.1-.392-.154-.581-.042-.14-.084-.273-.133-.405s-.09-.241-.134-.363c-.034-.1-.066-.191-.1-.288-.007-.017-.015-.033-.022-.05a12.931,12.931,0,0,0-24.155.421,1.626,1.626,0,0,0-.056.168,14.08,14.08,0,0,0-.72,3.82c0,.154-.007.308-.007.469a17.645,17.645,0,0,0,.735,4.883c2.049,7.149,7.9,13.7,10.7,17.706a1.747,1.747,0,0,0,2.134.749c-.035.014-.069.021-.112.034A2.034,2.034,0,0,0,51,54.571a1.274,1.274,0,0,0,.14-.063.624.624,0,0,1,.069-.042c-.014.007-.028.007-.034.014a2.08,2.08,0,0,0,.65-.615c2.63-3.778,7.982-10.13,10.3-16.7a17.882,17.882,0,0,0,1.126-5.772,15.933,15.933,0,0,0-.133-1.853M50.312,40.783c-4.659,0-8.43-3.833-8.43-9.22s3.771-9.227,8.43-9.227,8.43,3.841,8.43,9.227-3.778,9.22-8.43,9.22" transform="translate(117.487 351.262)" fill="#439c35"/>
  </g>
</svg>
